inDegrees=yes
name=ik_MT_2026-07-10_09h47_01210270-000-000_orientations
DataType=double
version=3
OpenSimVersion=4.5
endheader
time	pelvis_tilt	pelvis_list	pelvis_rotation	pelvis_tx	pelvis_ty	pelvis_tz	hip_flexion_r	hip_adduction_r	hip_rotation_r	knee_angle_r	knee_angle_r_beta	ankle_angle_r	subtalar_angle_r	mtp_angle_r	hip_flexion_l	hip_adduction_l	hip_rotation_l	knee_angle_l	knee_angle_l_beta	ankle_angle_l	subtalar_angle_l	mtp_angle_l	lumbar_extension	lumbar_bending	lumbar_rotation	arm_flex_r	arm_add_r	arm_rot_r	elbow_flex_r	pro_sup_r	wrist_flex_r	wrist_dev_r	arm_flex_l	arm_add_l	arm_rot_l	elbow_flex_l	pro_sup_l	wrist_flex_l	wrist_dev_l
5.8	6.035150455992523	-1.024917937293158	174.9207481917799	0	0.9399999999999999	0	-4.464136244197704	1.502899169290024	-1.758494100047693	1.008113518699367	0.01759490013516938	11.020957816065	0	0	25.07698142057376	0.947688959183605	-3.411734199609243	-3.620552037348668	-0.06319055379152297	-1.729937909139216	0	0	-2.997119707285982	3.732143090054306	0.9107716125792874	-6.788672989930098	-5.583798973690101	2.752867007941558	5.135874843289307	45.00000025534009	0	0	-1.267298682603973	-1.849937837769603	-6.951411250224226	0.3792867087121635	45.00000025534009	0	0
5.825	6.014788129615416	-1.256467412295941	174.4599943067257	0	0.9399999999999999	0	-5.15269453474485	1.198604043466209	-1.494027057884873	1.686202907902592	0.02942979259960293	12.20430264835259	0	0	23.41801822292073	0.7842052905194088	-4.762850743866703	-3.725373566872833	-0.0650200346086961	-2.837977023336553	0	0	-3.018159481664016	3.113994888769982	0.6306503935022884	-7.490027874627135	-5.612920934421801	2.297357309576888	5.006788469919841	45.00000025534009	0	0	-0.7229163488886391	-1.948880064023615	-6.769577752739157	0.3416562686865942	45.00000025534009	0	0
5.85	5.933682895243782	-1.562123200666491	174.2728000372914	0	0.9399999999999999	0	-5.905918949347982	0.7919253805835765	-1.314586563556534	2.441712854459139	0.04261592869858109	13.26261402728371	0	0	21.34168616204088	0.4833671121992368	-5.908934244404191	-4.590626145400649	-0.08012154096537727	-5.398562703623564	0	0	-2.61035946196758	2.350844810227923	0.1914901252946874	-8.766415649008641	-5.540461562507938	1.489764979403382	4.83346651777141	45.00000025534009	0	0	-0.4177811080540257	-2.052225778872817	-6.417901336556433	0.3327568355252271	45.00000025534009	0	0
5.875	5.814431510214741	-2.085638852435289	174.5013378986338	0	0.9399999999999999	0	-6.476921239177175	0.2859790653559616	-1.544581195664513	3.550105091988353	0.06196102264701293	13.74245786864784	0	0	19.40558210626799	0.6739729959096828	-6.84765384196927	-7.058965223186034	-0.1232021849283727	-7.111331246281762	0	0	-2.266194812173752	1.402109531403381	-0.4068324666835502	-9.989643099434526	-5.510948377214104	0.3233003091727972	4.442435822088631	45.00000025534009	0	0	0.1721467627249404	-2.011930241250341	-5.774173786386624	0.337319293024526	45.00000025534009	0	0
5.9	6.391350265230847	-2.817900213094206	175.3601213385597	0	0.9399999999999999	0	-6.249030596449772	-0.4091074735978716	-2.47311410929053	5.012562718943049	0.08748572340827535	14.59656900968471	0	0	18.6211600740088	1.883765266812752	-6.150284921334917	-6.785056291420132	-0.1184215722184372	-8.915818384256809	0	0	-1.371211495236109	0.1734091009389628	-1.318276546544221	-11.06659862873813	-5.266705724869996	-1.156286257810419	3.867400741796326	45.00000025534009	0	0	1.205655105966494	-2.14608023011622	-4.747721341920035	0.3555922138813003	45.00000025534009	0	0
5.925	6.773382254886367	-3.413283410763766	176.5412760162183	0	0.9399999999999999	0	-5.908070360051515	-1.059166077461804	-3.636454246950017	7.147660542775197	0.1247502102863122	15.17831915731004	0	0	19.02951124312899	2.813016135705329	-4.314865604809133	-5.648023126604585	-0.09857659978803454	-9.464884993507718	0	0	-0.5640575000470066	-1.038419534481127	-2.277001424416418	-12.27686049858185	-4.805012768731393	-2.878121458986639	3.027222848360178	45.00000025534009	0	0	2.238206209729684	-2.233609935411783	-3.49847456106832	0.4769674291845281	45.00000025534009	0	0
5.95	7.025312927870845	-3.693308720212028	177.7556097261151	0	0.9399999999999999	0	-5.279839014268536	-1.46060370955919	-5.19112506231304	10.20164248414205	0.1780522504596122	14.29396221597969	0	0	19.17647527823215	4.082855805782457	-2.129116093944738	-4.391447585609103	-0.0766452192976344	-10.04615874038586	0	0	-0.1312649953358856	-1.857807831464626	-3.108218234052583	-13.30677043818263	-4.308718751224871	-4.64834112155047	2.072045246740063	45.00000025534009	0	0	3.550773513900539	-2.134569108253911	-2.232397897780868	0.8316454594677112	45.00000025534009	0	0
